<?xml version="1.0" encoding="UTF-8" ?>
<!DOCTYPE svg PUBLIC "-//W3C//DTD SVG 1.1//EN" "http://www.w3.org/Graphics/SVG/1.1/DTD/svg11.dtd">
<svg width="131pt" height="118pt" viewBox="0 0 131 118" version="1.1" xmlns="http://www.w3.org/2000/svg">
<g id="#eba133ff">
<path fill="#eba133" opacity="1.00" d=" M 51.20 0.00 L 55.66 0.00 C 56.41 3.18 56.51 6.48 56.12 9.72 C 54.59 19.44 52.06 29.15 52.87 39.07 C 53.97 50.39 55.34 61.68 56.39 73.01 C 56.54 75.82 57.01 78.92 55.51 81.47 C 54.11 82.01 52.51 82.13 51.07 81.70 C 49.74 77.58 50.57 73.08 50.16 68.81 C 49.55 62.01 49.35 55.04 47.19 48.50 C 45.06 41.93 43.09 35.24 39.77 29.13 C 36.53 22.62 31.74 17.05 27.94 10.89 C 26.54 7.89 30.77 6.84 32.61 8.44 C 36.35 11.70 39.45 15.74 41.48 20.27 C 41.53 20.37 41.63 20.56 41.68 20.65 C 42.90 22.84 44.07 25.07 45.47 27.15 C 45.59 27.26 45.81 27.49 45.92 27.60 L 46.55 28.07 C 47.72 18.67 47.31 8.85 51.20 0.00 Z" />
</g>
<g id="#f7c82bff">
<path fill="#f7c82b" opacity="1.00" d=" M 1.76 13.27 C 4.00 7.77 8.20 1.36 14.90 1.53 C 18.66 1.17 22.57 3.45 23.70 7.10 C 24.36 9.10 22.70 10.99 20.94 11.67 C 18.30 12.07 15.06 10.70 12.99 13.03 C 7.68 18.53 7.55 26.94 9.46 33.92 C 11.03 41.86 15.54 48.68 19.42 55.63 C 20.01 60.28 23.18 63.90 24.64 68.23 C 26.63 74.27 28.08 80.57 27.73 86.97 C 28.07 92.21 26.30 97.23 25.97 102.41 C 23.85 108.64 19.45 114.89 12.81 116.69 C 9.05 116.72 5.19 116.71 1.64 115.30 C 0.82 114.34 0.37 113.16 0.00 111.97 L 0.00 110.89 C 4.38 108.04 10.28 112.16 14.08 108.04 C 18.78 102.63 20.61 95.05 20.45 87.99 C 20.37 82.75 21.16 76.95 17.75 72.49 L 17.73 72.45 C 14.50 61.65 6.91 52.84 3.17 42.24 C 1.61 37.83 0.11 33.31 0.00 28.58 L 0.00 21.33 C 0.50 18.62 1.31 15.99 1.76 13.27 Z" />
</g>
<g id="#fff5f2ff">
<path fill="#fff5f2" opacity="1.00" d=" M 52.87 39.07 C 52.06 29.15 54.59 19.44 56.12 9.72 C 55.98 12.32 55.71 14.92 55.19 17.47 C 53.31 26.13 52.56 35.10 53.75 43.92 C 54.18 50.95 55.47 57.90 55.94 64.93 C 56.23 70.44 57.70 75.99 56.33 81.48 C 54.60 82.32 52.64 82.74 50.75 82.12 C 49.94 80.55 50.09 78.67 49.99 76.95 C 50.22 67.40 48.98 57.86 47.19 48.50 C 49.35 55.04 49.55 62.01 50.16 68.81 C 50.57 73.08 49.74 77.58 51.07 81.70 C 52.51 82.13 54.11 82.01 55.51 81.47 C 57.01 78.92 56.54 75.82 56.39 73.01 C 55.34 61.68 53.97 50.39 52.87 39.07 Z" />
<path fill="#fff5f2" opacity="1.00" d=" M -0.00 15.62 C 0.59 14.84 1.18 14.06 1.76 13.27 C 1.31 15.99 0.50 18.62 0.00 21.33 L 0.00 15.62 Z" />
<path fill="#fff5f2" opacity="1.00" d=" M 12.97 29.07 C 12.19 25.48 11.36 21.69 12.74 18.14 C 12.16 21.77 12.42 25.45 12.97 29.07 Z" />
<path fill="#fff5f2" opacity="1.00" d=" M 17.42 21.19 C 18.17 19.85 19.95 20.07 21.23 19.77 C 20.11 20.05 19.01 20.41 17.95 20.87 C 16.65 22.83 17.17 25.26 17.29 27.45 L 17.35 28.29 C 16.90 26.01 15.95 23.30 17.42 21.19 Z" />
<path fill="#fff5f2" opacity="1.00" d=" M 0.00 28.58 C 0.11 33.31 1.61 37.83 3.17 42.24 C 6.91 52.84 14.50 61.65 17.73 72.45 C 16.47 70.05 15.28 67.60 14.15 65.12 C 10.54 57.48 5.49 50.53 2.72 42.49 C 1.94 40.37 1.46 38.09 0.00 36.29 L 0.00 28.58 Z" />
<path fill="#fff5f2" opacity="1.00" d=" M 130.20 73.00 L 131.00 73.02 L 131.00 77.39 C 129.96 77.92 128.91 78.43 127.83 78.86 C 128.54 78.46 129.97 77.66 130.68 77.26 C 130.54 75.84 130.38 74.42 130.20 73.00 Z" />
<path fill="#fff5f2" opacity="1.00" d=" M 0.00 111.97 C 0.37 113.16 0.82 114.34 1.64 115.30 C 2.42 116.23 3.23 117.13 4.08 118.00 L 0.00 118.00 L 0.00 111.97 Z" />
</g>
<g id="#e6923cff">
<path fill="#e6923c" opacity="1.00" d=" M 12.74 18.14 C 16.83 15.13 22.63 15.33 26.72 18.21 C 32.18 22.03 35.35 28.17 37.90 34.15 C 40.71 40.99 44.25 47.67 45.22 55.10 C 46.38 59.68 45.04 65.26 40.82 67.83 C 37.60 69.04 33.57 68.56 31.29 65.78 C 31.26 65.76 31.20 65.70 31.16 65.67 C 26.09 61.12 23.39 54.68 20.22 48.79 C 17.36 42.40 13.88 36.12 12.97 29.07 C 12.42 25.45 12.16 21.77 12.74 18.14 M 17.42 21.19 C 15.95 23.30 16.90 26.01 17.35 28.29 L 17.29 27.45 C 21.91 38.60 25.35 50.49 32.65 60.31 C 33.93 61.75 35.33 63.35 37.19 63.99 C 37.31 64.00 37.57 64.03 37.69 64.04 L 38.94 64.12 C 39.84 62.57 40.17 60.81 40.05 59.02 C 40.64 48.68 34.62 39.72 30.54 30.66 C 28.44 26.38 26.68 20.66 21.23 19.77 C 19.95 20.07 18.17 19.85 17.42 21.19 Z" />
</g>
<g id="#ae8e6ab1">
<path fill="#ae8e6a" opacity="0.69" d=" M 41.48 20.27 C 41.53 20.37 41.63 20.56 41.68 20.65 C 41.63 20.56 41.53 20.37 41.48 20.27 Z" />
</g>
<g id="#af9466af">
<path fill="#af9466" opacity="0.69" d=" M 45.47 27.15 C 45.59 27.26 45.81 27.49 45.92 27.60 C 45.81 27.49 45.59 27.26 45.47 27.15 Z" />
</g>
<g id="#e09856ff">
<path fill="#e09856" opacity="1.00" d=" M 101.04 28.07 C 103.21 27.52 105.06 29.19 106.90 30.04 C 108.10 29.10 109.52 28.76 111.03 28.85 C 111.11 30.32 111.35 32.08 109.65 32.71 C 107.29 34.58 104.69 32.44 102.67 31.15 C 101.74 32.70 99.65 33.68 98.52 31.75 C 98.44 30.27 99.92 28.95 101.04 28.07 Z" />
</g>
<g id="#e68d92ff">
<path fill="#e68d92" opacity="1.00" d=" M 82.48 35.98 C 82.60 34.24 81.20 30.95 84.32 31.04 C 85.73 32.73 85.70 34.93 85.74 37.00 C 87.08 50.55 88.34 64.18 87.53 77.80 C 86.65 78.94 85.01 78.78 83.76 78.50 C 82.69 76.01 81.98 73.38 81.16 70.80 C 80.00 68.53 79.02 66.16 78.13 63.76 C 77.18 61.78 76.21 59.81 75.22 57.85 C 72.96 53.08 70.55 48.38 68.28 43.61 C 67.50 43.01 66.72 42.42 65.94 41.82 C 67.05 54.51 68.40 67.17 69.77 79.83 C 69.36 79.95 68.54 80.19 68.13 80.31 C 67.58 79.91 67.03 79.51 66.48 79.11 C 64.49 65.85 63.32 52.49 62.40 39.11 C 62.04 37.08 62.80 35.16 63.49 33.30 C 64.41 33.34 65.33 33.38 66.25 33.43 C 69.07 37.36 71.46 41.59 73.44 46.01 C 74.81 49.78 76.66 53.36 77.83 57.20 C 79.60 61.31 81.23 65.47 82.77 69.66 L 84.49 69.87 C 84.67 58.53 83.66 47.24 82.48 35.98 Z" />
</g>
<g id="#adc84fff">
<path fill="#adc84f" opacity="1.00" d=" M 91.25 34.98 C 90.99 33.17 91.98 31.56 93.97 31.83 C 95.49 44.14 95.06 56.54 95.88 68.89 C 96.14 72.06 96.08 75.25 95.63 78.41 C 95.09 78.50 94.00 78.67 93.45 78.76 C 92.66 77.27 91.72 75.77 91.99 74.00 C 92.13 60.99 91.66 47.98 91.25 34.98 Z" />
</g>
<g id="#3dadaaff">
<path fill="#3dadaa" opacity="1.00" d=" M 118.55 36.86 C 118.69 35.04 121.47 33.17 122.27 35.60 C 125.62 47.88 127.75 60.50 130.20 73.00 C 130.38 74.42 130.54 75.84 130.68 77.26 C 129.97 77.66 128.54 78.46 127.83 78.86 C 126.49 75.98 126.08 72.81 125.88 69.67 C 123.91 69.33 121.91 69.14 119.91 69.00 C 118.92 72.40 119.66 76.20 118.02 79.38 C 117.52 79.29 116.52 79.11 116.02 79.01 C 115.64 71.99 116.29 64.95 116.50 57.92 C 116.90 50.88 116.94 43.75 118.55 36.86 M 120.18 43.70 C 120.36 51.13 119.51 58.56 119.97 65.98 C 121.62 65.94 123.26 65.88 124.90 65.79 C 124.89 61.11 123.09 56.68 122.73 52.05 C 122.68 50.46 122.07 48.98 121.61 47.48 C 121.13 46.22 120.69 44.95 120.18 43.70 Z" />
</g>
<g id="#e19449ff">
<path fill="#e19449" opacity="1.00" d=" M 111.21 36.13 C 111.94 36.08 113.39 35.99 114.11 35.94 C 113.87 49.66 114.19 63.39 113.92 77.10 C 113.92 79.16 111.20 79.52 110.58 77.55 C 106.87 67.63 104.50 57.25 101.66 47.05 L 101.13 47.09 C 101.15 55.74 101.27 64.39 101.97 73.01 C 101.96 74.56 102.41 76.24 101.75 77.71 C 100.98 77.85 99.45 78.12 98.68 78.25 C 98.24 64.95 97.53 51.61 98.36 38.31 C 98.53 37.96 98.85 37.26 99.02 36.91 C 101.76 36.74 102.10 40.01 103.12 41.88 C 105.86 50.63 108.62 59.41 110.54 68.37 C 111.62 63.68 110.68 58.81 110.84 54.04 C 111.01 48.07 110.37 42.06 111.21 36.13 Z" />
</g>
<g id="#ffe886ff">
<path fill="#ffe886" opacity="1.00" d=" M 19.42 55.63 C 20.74 58.03 21.91 60.51 23.21 62.92 C 29.21 75.04 30.56 89.62 25.97 102.41 C 26.30 97.23 28.07 92.21 27.73 86.97 C 28.08 80.57 26.63 74.27 24.64 68.23 C 23.18 63.90 20.01 60.28 19.42 55.63 Z" />
<path fill="#ffe886" opacity="1.00" d=" M 17.75 72.49 C 21.16 76.95 20.37 82.75 20.45 87.99 C 20.61 95.05 18.78 102.63 14.08 108.04 C 10.28 112.16 4.38 108.04 0.00 110.89 L 0.00 109.80 C 3.56 106.25 9.05 110.70 12.87 107.62 C 15.99 104.53 17.61 100.24 18.31 95.98 C 19.50 90.82 20.35 85.45 19.36 80.19 C 18.68 77.65 17.98 75.11 17.75 72.49 Z" />
<path fill="#ffe886" opacity="1.00" d=" M 1.64 115.30 C 5.19 116.71 9.05 116.72 12.81 116.69 C 12.52 117.02 11.94 117.67 11.65 118.00 L 4.08 118.00 C 3.23 117.13 2.42 116.23 1.64 115.30 Z" />
</g>
<g id="#fcc58bff">
<path fill="#fcc58b" opacity="1.00" d=" M 37.19 63.99 L 37.69 64.04 C 37.57 64.03 37.31 64.00 37.19 63.99 Z" />
</g>
<g id="#9f8165ac">
<path fill="#9f8165" opacity="0.67" d=" M 31.16 65.67 C 31.20 65.70 31.26 65.76 31.29 65.78 C 31.26 65.76 31.20 65.70 31.16 65.67 Z" />
</g>
</svg>
